<?xml version="1.0" encoding="UTF-8" standalone="no"?>
<!-- Created with Inkscape (http://www.inkscape.org/) -->

<svg
   width="41.587723mm"
   height="47.979954mm"
   viewBox="0 0 41.587723 47.979954"
   version="1.1"
   id="svg5"
   xml:space="preserve"
   inkscape:version="1.2.1 (9c6d41e4, 2022-07-14)"
   sodipodi:docname="logo.svg"
   xmlns:inkscape="http://www.inkscape.org/namespaces/inkscape"
   xmlns:sodipodi="http://sodipodi.sourceforge.net/DTD/sodipodi-0.dtd"
   xmlns="http://www.w3.org/2000/svg"
   xmlns:svg="http://www.w3.org/2000/svg"><sodipodi:namedview
     id="namedview7"
     pagecolor="#ffffff"
     bordercolor="#666666"
     borderopacity="1.0"
     inkscape:showpageshadow="2"
     inkscape:pageopacity="0.0"
     inkscape:pagecheckerboard="0"
     inkscape:deskcolor="#d1d1d1"
     inkscape:document-units="mm"
     showgrid="false"
     inkscape:zoom="1.6721085"
     inkscape:cx="73.858844"
     inkscape:cy="94.7905"
     inkscape:window-width="1103"
     inkscape:window-height="575"
     inkscape:window-x="74"
     inkscape:window-y="25"
     inkscape:window-maximized="0"
     inkscape:current-layer="g1089"><inkscape:page
       x="0"
       y="0"
       width="41.587723"
       height="47.979954"
       id="page1113" /><inkscape:page
       x="135.89893"
       y="-53.153103"
       width="35.323639"
       height="34.558109"
       id="page1115" /></sodipodi:namedview><defs
     id="defs2" /><g
     inkscape:label="Layer 1"
     inkscape:groupmode="layer"
     id="layer1"
     transform="translate(-84.101082,-53.153103)" /><g
     id="g1089"
     transform="matrix(0.03527778,0,0,-0.03527778,3.7590872,41.811788)"><path
       sodipodi:type="star"
       style="fill:#f8ee31;fill-opacity:0.640909;stroke:#000000;stroke-width:6.71094;stroke-opacity:0.618182"
       id="path1814"
       inkscape:flatsided="true"
       sodipodi:sides="6"
       sodipodi:cx="357.1156"
       sodipodi:cy="249.71574"
       sodipodi:r1="77.164795"
       sodipodi:r2="66.826675"
       sodipodi:arg1="0.52359878"
       sodipodi:arg2="1.0471976"
       inkscape:rounded="0"
       inkscape:randomized="0"
       d="m 423.94227,288.29814 -66.82667,38.5824 -66.82667,-38.5824 0,-77.16479 66.82667,-38.5824 66.82667,38.5824 z"
       transform="matrix(8.3986072,0,0,-8.3913645,-2516.3982,2600.641)" /><g
       id="g1091"
       transform="scale(10)"><text
         xml:space="preserve"
         transform="scale(1,-1)"
         style="font-variant:normal;font-weight:normal;font-size:23.1201px;font-family:FredokaOne;-inkscape-font-specification:FredokaOne-Regular;writing-mode:lr-tb;fill:#100f0d;fill-opacity:1;fill-rule:nonzero;stroke:none"
         id="text1095"
         x="14.702901"
         y="-13.938693"><tspan
           sodipodi:role="line"
           id="tspan1093"
           x="14.702901"
           y="-13.938693">GBHS</tspan></text></g><g
       id="g1760"
       transform="translate(-26.321464)"><path
         d="m 330.703,829.918 c 7.555,4.621 11.063,14.07 7.899,22.707 -3.61,9.84 -14.508,14.891 -24.348,11.281 -9.84,-3.605 -14.891,-14.504 -11.285,-24.343 1.191,-3.247 3.183,-5.954 5.66,-8.02 l -24.578,-12.16 c -12.891,-6.379 -18.168,-22 -11.789,-34.891 l 4.937,-9.984 9.008,4.457 0.055,-0.141 c 3.14,1.149 6.644,-0.469 7.801,-3.617 1.152,-3.144 -0.469,-6.644 -3.618,-7.801 l -13.695,-5.019 4.445,-12.129 13.696,5.019 c 9.836,3.606 14.906,14.543 11.3,24.379 -0.996,2.723 -2.57,5.059 -4.507,6.965 l 15.336,7.59 c 5.132,2.543 9.121,6.473 11.738,11.109 7.629,-9.238 18.648,-15.597 31.164,-17.078 l 1.457,12.332 c -15.645,1.848 -28.133,14 -30.676,29.344"
         style="fill:#100f0d;fill-opacity:1;fill-rule:nonzero;stroke:none"
         id="path1097" /><path
         d="m 364.023,834.688 c -6.121,-2.903 -12.89,-3.973 -19.57,-3.102 l -1.676,-12.813 c 4.164,-0.543 8.352,-0.535 12.469,0.008 4.926,0.649 9.75,2.067 14.313,4.231 1.375,0.648 2.73,1.371 4.031,2.148 l -6.61,11.102 c -0.953,-0.567 -1.949,-1.098 -2.957,-1.574"
         style="fill:#100f0d;fill-opacity:1;fill-rule:nonzero;stroke:none"
         id="path1099" /><path
         d="m 463.598,957.766 0.004,-0.024 2.836,-0.609 0.98,-11.094 30.848,2.723 -2.719,30.851 -17.801,-1.57 c -6.422,-0.566 -11.336,-5.676 -11.887,-11.879 l -2.754,-0.851 c -29.093,4.73 -2.281,-17.719 -38.625,-16.223 36.415,-14.563 27.782,6.492 39.118,8.676"
         style="fill:#100f0d;fill-opacity:1;fill-rule:nonzero;stroke:none"
         id="path1101" /><path
         d="m 722.758,969.426 -31.641,4.722 -4.722,-31.64 31.64,-4.723 4.723,31.641"
         style="fill:#100f0d;fill-opacity:1;fill-rule:nonzero;stroke:none"
         id="path1103" /><path
         d="m 704.078,851.051 7.695,11.676 -16.41,11.765 17.063,51.246 -30.289,10.086 c -9.25,3.082 -19.129,-0.82 -23.969,-8.824 l -19.742,-15.906 c -2.028,-1.633 -3.172,-4.117 -3.098,-6.711 0.07,-2.598 1.356,-5.016 3.469,-6.531 l 7.359,-5.278 -11.906,-35.765 11.215,-3.735 2.547,-34.773 -36.914,-13.063 4.496,-12.695 41.754,14.773 c 2.859,1.016 4.691,3.817 4.468,6.84 l -2.511,34.309 8.261,-2.75 20.122,-30.348 -8.239,-45.054 13.25,-2.418 8.727,47.722 c 0.312,1.711 -0.051,3.481 -1.012,4.93 l -15.32,23.105 5.648,16.957 13.336,-9.558"
         style="fill:#100f0d;fill-opacity:1;fill-rule:nonzero;stroke:none"
         id="path1105" /><path
         d="m 715.551,850.586 -4.418,-3.715 44.691,-53.098 4.414,3.715 -44.687,53.098"
         style="fill:#100f0d;fill-opacity:1;fill-rule:nonzero;stroke:none"
         id="path1107" /><path
         d="m 548.582,842.051 -27.187,18.101 c -0.219,5.473 -0.684,18.235 -1.11,31.746 l 14.203,-4.144 c 0.532,-0.156 1.075,-0.242 1.617,-0.266 1.403,-0.054 2.805,0.328 4,1.121 l 25.875,17.2 -7.457,11.214 -23.265,-15.464 -15.449,4.507 c -1.075,16.051 -14.356,28.774 -30.684,28.809 l -19.836,0.039 0.078,-4.144 -26.004,-11.661 c -1.027,-0.461 -1.925,-1.171 -2.605,-2.07 l -23.442,-30.848 10.727,-8.152 22.398,29.484 19.211,8.614 1.125,-57.985 10.149,0.278 -15.953,-33.36 -50.121,7.364 -1.957,-13.325 55.035,-8.086 c 0.234,-0.035 0.472,-0.054 0.711,-0.066 2.664,-0.105 5.172,1.379 6.339,3.824 l 21.075,44.063 2.957,0.082 -0.024,-0.035 40.5,-26.965 19.938,-44.887 12.304,5.465 -20.726,46.676 c -0.52,1.168 -1.359,2.164 -2.422,2.871"
         style="fill:#100f0d;fill-opacity:1;fill-rule:nonzero;stroke:none"
         id="path1109" /><path
         d="m 715.703,525.98 -0.199,-1.382 c -9.16,-62.778 -47.418,-63.336 -58.941,-62.004 -3.348,0.386 -6.684,-0.676 -9.192,-2.922 -12.66,-11.352 -45.351,-35.418 -77.766,-16.649 -7.39,7.864 -10.82,14.954 -10.382,21.618 1.031,15.648 23.172,33.035 44.586,49.843 22.593,17.739 45.961,36.082 56.988,59.461 l -21.258,10.024 c -8.652,-18.352 -29.797,-34.949 -50.242,-51 -26.641,-20.914 -51.805,-40.672 -53.524,-66.785 -0.679,-10.34 2.547,-20.602 9.602,-30.629 -14.891,-9.434 -33.02,-11.184 -64.465,-11.184 l -4.347,-0.004 c -35.895,0.059 -55.125,0.567 -65.391,13.528 -9.238,11.668 -13.309,56.203 2.312,102.808 1.204,2.66 4.774,10.016 18.731,11.399 22.125,2.187 54.976,-12.536 67.652,-30.305 4.227,-5.918 5.383,-11.067 3.446,-15.297 -3.157,-6.879 -7.305,-10.922 -12.684,-12.355 -12.32,-3.305 -29.582,6.363 -35.184,10.363 l -13.718,-19.082 c 2.515,-1.813 22.144,-15.446 43.437,-15.446 3.777,0 7.617,0.43 11.418,1.434 8.559,2.258 20.383,8.477 28.09,25.285 5.543,12.09 3.527,25.852 -5.676,38.746 -17.652,24.743 -58.426,43.082 -89.098,40.039 -0.453,-0.043 -0.886,-0.113 -1.335,-0.168 14.679,29.036 32.714,59.411 53.472,84.215 68.672,2.121 89.406,-14.664 95.613,-25.027 7.954,-13.274 0.165,-27.234 -0.75,-28.781 -5.484,-9.285 -17.418,-17.071 -28.375,-18.52 -4.535,-0.609 -10.894,-0.371 -15.464,4.106 -13.106,12.828 -8.84,29.933 -8.657,30.656 l -22.656,6.234 c -0.351,-1.254 -8.324,-30.969 14.871,-53.679 7.391,-7.235 17.285,-11.055 28.348,-11.055 2.172,0 4.387,0.144 6.637,0.441 18.093,2.391 36.394,14.395 45.531,29.864 7.394,12.531 12.015,33.878 0.676,52.808 -13.563,22.641 -44.922,34.809 -93.274,36.41 20.352,18.129 42.735,29.758 66.68,29.758 0.043,0 0.082,0.004 0.133,0 10.593,0 63.89,-1.551 73.195,-32.211 1.289,-4.25 4.867,-7.414 9.242,-8.168 26.391,-4.558 44.113,-43.172 44.113,-76.379 0,-4.472 2.543,-8.562 6.559,-10.539 18.629,-9.179 13.641,-43.148 11.246,-59.469 z M 344.832,440.102 c -14.644,0 -29.191,6.714 -40.953,18.914 -16.66,17.265 -25.633,43.222 -24.621,71.211 1.555,43.07 22.43,69.253 37.89,82.855 6.614,-16.152 21.266,-25.086 42.45,-25.086 35.558,0 46.847,40.832 47.308,42.57 l -22.695,6.094 c -0.066,-0.25 -7.129,-25.164 -24.613,-25.164 -16.301,0 -22.953,6.926 -22.953,23.899 0,3.027 2.875,16.406 16.937,26.539 14.918,10.75 44.633,19.308 102.625,3.175 -18.727,-24.254 -36.926,-54.652 -54.539,-91.175 l -0.129,-0.27 c -0.348,-0.723 -0.672,-1.457 -1.012,-2.184 -2.906,1.649 -6.195,2.95 -9.871,3.801 -25.191,5.86 -64.203,-8.785 -73.851,-34.191 -10.723,-28.235 8.047,-48.899 19.468,-55.875 l 12.254,20.051 c -0.672,0.41 -16.312,10.211 -9.754,27.48 5.129,13.516 31.739,23.09 46.571,19.649 5.062,-1.18 5.746,-2.981 5.715,-4.84 -12.364,-37.571 -14.227,-76.461 -7.93,-102.328 -6.734,-2.317 -18.863,-5.125 -38.297,-5.125 z m 135.652,277.355 c 11.582,0.531 20.297,-0.598 26.844,-2.359 -11.723,-7.918 -23.277,-18.02 -34.644,-30.368 -20.864,6.434 -39.922,10.465 -57.11,12.059 0.614,0.457 1.242,0.918 1.903,1.379 11.355,7.98 31.503,17.809 63.007,19.289 z M 721.211,602.715 c -2.152,39.156 -22.852,80.816 -56.625,91.183 -17.547,39.168 -75.227,42.348 -93.238,42.348 -0.047,0 -0.09,0 -0.137,0 -12.738,0 -25.316,-2.445 -37.723,-7.262 -9.804,6.77 -26.523,13.282 -54.109,11.946 -64.102,-3.02 -91.051,-35.95 -96.902,-44.325 -16.723,-2.031 -30.977,-7.21 -42.633,-15.609 -18.117,-13.051 -24.781,-30.539 -26.313,-41.012 -18.176,-12.527 -55.476,-45.781 -57.758,-108.906 -1.238,-34.332 10.129,-66.543 31.188,-88.375 16.234,-16.832 36.789,-26.101 57.871,-26.101 23.211,0 38.383,3.531 47.699,7.007 0.074,-0.097 0.141,-0.207 0.215,-0.3 17.16,-21.676 44.832,-22.442 79.836,-22.442 1.32,0 2.656,0.004 4,0.004 l 4.328,0.004 c 33.606,0 59.828,1.445 82.715,18.746 29.469,-13.836 64.332,-6.922 95.547,19.188 49.375,-2.59 73.719,42.191 79.582,82.398 l 0.203,1.359 c 2.75,18.75 8.941,60.95 -17.746,80.149"
         style="fill:#100f0d;fill-opacity:1;fill-rule:nonzero;stroke:none"
         id="path1111" /></g><text
       xml:space="preserve"
       style="font-size:100px;line-height:1.25;font-family:'Gill Sans';-inkscape-font-specification:'Gill Sans';text-align:center;word-spacing:0px;text-anchor:middle;stroke-width:7.49998"
       x="506.87476"
       y="42.299416"
       id="text3301"
       transform="matrix(0,1,1,0,0,0)"><tspan
         sodipodi:role="line"
         id="tspan3299"
         style="font-size:100px;stroke-width:7.49998"
         x="506.87476"
         y="42.299416">lifebrain.uio.no/</tspan></text></g></svg>
